<svg id="Layer_1" height="512" viewBox="0 0 512 512" width="512" xmlns="http://www.w3.org/2000/svg" data-name="Layer 1"><path d="m86.311 385.702h23.831v56.131h-23.831z" transform="matrix(.707 -.707 .707 .707 -263.807 190.645)"/><path d="m53.484 418.819a28.1 28.1 0 0 0 0 39.688 28.065 28.065 0 0 0 39.688 0l7.986-7.987-39.69-39.69z"/><path d="m144.013 311.533 23.981 23.981 229.922-229.922a6 6 0 1 1 8.485 8.485l-229.922 229.923 23.981 23.98 243.093-243.093 23.17-79.616-79.617 23.169z"/><path d="m119.885 352.418-24.593 24.593 39.69 39.69 24.594-24.593-19.846-19.845z"/><path d="m108.21 292.7a10.984 10.984 0 0 0 -15.509-.024l-.026.026a10.985 10.985 0 0 0 0 15.534l31.451 31.451 24.088 24.088 55.541 55.541a10.985 10.985 0 0 0 15.534 0l.025-.026a10.982 10.982 0 0 0 -.024-15.51z"/></svg>